<svg aria-hidden="true" style="position: absolute; width: 0; height: 0; overflow: hidden;" version="1.1" xmlns="http://www.w3.org/2000/svg" xmlns:xlink="http://www.w3.org/1999/xlink">
<defs>
<symbol id="icon-furniture" viewBox="0 0 32 32">
<path fill="#666" style="fill: var(--color1, #666)" d="M6.298 15.423h7.86c0.691 0 1.322 0.261 1.8 0.69 0.478-0.429 1.109-0.69 1.8-0.69h7.86v-9.652c0-0.495-0.396-0.906-0.89-0.908-0.008 0 0.307 0-17.53 0-0.512 0-0.9 0.42-0.9 0.908v9.652z"></path>
<path fill="#666" style="fill: var(--color1, #666)" d="M16.857 18.123v2.1h8.76c0-1.329 0-1.602 0-3h-7.86c-0.496 0-0.9 0.404-0.9 0.9z"></path>
<path fill="#666" style="fill: var(--color1, #666)" d="M28.408 11.104c-0.555 0.017-0.991 0.483-0.991 1.038 0 0.142 0 9.492 0 8.981 0 0.497-0.403 0.9-0.9 0.9-0.72 0-21.803 0-21.12 0-0.497 0-0.9-0.403-0.9-0.9 0-0.332 0-9.068 0-8.981 0-0.555-0.436-1.020-0.991-1.038-1.599-0.050-2.909 1.229-2.909 2.819v9.24c0 1.491 1.209 2.7 2.7 2.7h1.2v0.995c0 0.485 0.372 0.902 0.857 0.924 0.517 0.024 0.944-0.387 0.944-0.899v-1.020h19.32v0.995c0 0.485 0.372 0.902 0.856 0.924 0.517 0.024 0.944-0.387 0.944-0.899v-1.020h1.2c1.491 0 2.7-1.209 2.7-2.7v-9.189c0-1.661-1.32-2.919-2.909-2.869z"></path>
<path fill="#666" style="fill: var(--color1, #666)" d="M15.058 18.123c0-0.496-0.404-0.9-0.9-0.9h-7.86v3h8.76v-2.1z"></path>
</symbol>
<symbol id="icon-location-outline" viewBox="0 0 24 24">
<path d="M12 5c1.609 0 3.12 0.614 4.254 1.73 1.126 1.107 1.746 2.579 1.746 4.14s-0.62 3.030-1.745 4.139l-4.255 4.184-4.254-4.186c-1.125-1.107-1.745-2.576-1.745-4.139s0.62-3.032 1.745-4.141c1.135-1.113 2.647-1.727 4.254-1.727M12 3c-2.047 0-4.096 0.768-5.657 2.305-3.124 3.074-3.124 8.057 0 11.131l5.657 5.563 5.657-5.565c3.124-3.072 3.124-8.056 0-11.129-1.561-1.537-3.609-2.305-5.657-2.305z"></path>
<path d="M12 8.499c0.668 0 1.296 0.26 1.768 0.731 0.976 0.976 0.976 2.562 0 3.537-0.473 0.472-1.1 0.731-1.768 0.731s-1.295-0.26-1.768-0.731c-0.976-0.976-0.976-2.562 0-3.537 0.473-0.471 1.101-0.731 1.768-0.731M12 7.499c-0.896 0-1.792 0.342-2.475 1.024-1.367 1.367-1.367 3.584 0 4.951 0.684 0.684 1.578 1.024 2.475 1.024s1.792-0.342 2.475-1.024c1.366-1.367 1.366-3.584 0-4.951-0.683-0.683-1.579-1.024-2.475-1.024z"></path>
</symbol>
<symbol id="icon-phone-outline" viewBox="0 0 24 24">
<path d="M19.502 3.672l-1.795-1.793c-0.566-0.567-1.32-0.879-2.121-0.879s-1.555 0.312-2.121 0.879l-1.586 1.586c-1.17 1.17-1.17 3.072 0 4.242l1.379 1.379-4.172 4.172-1.379-1.379c-0.566-0.567-1.32-0.879-2.121-0.879s-1.555 0.312-2.121 0.879l-1.586 1.586c-1.17 1.17-1.17 3.072 0 4.242l1.794 1.793c0.465 0.465 1.796 1.545 4.116 1.545 2.764 0 5.694-1.529 8.711-4.545 6.245-6.246 4.825-11.002 3.002-12.828zM13.293 4.879l1.586-1.586c0.195-0.195 0.451-0.293 0.707-0.293s0.512 0.098 0.707 0.293l1.083 1.082-3.001 3-1.082-1.082c-0.391-0.391-0.391-1.023 0-1.414zM3.293 16.293c-0.391-0.391-0.391-1.023 0-1.414l1.586-1.586c0.195-0.195 0.451-0.293 0.707-0.293s0.512 0.098 0.707 0.293l1.082 1.082-2.999 3-1.083-1.082zM15.086 15.086c-3.083 3.082-5.551 3.959-7.297 3.959-1.349 0-2.267-0.523-2.702-0.959-0.004-0.004 2.995-3.004 2.995-3.004l0.297 0.297c0.195 0.195 0.451 0.293 0.707 0.293s0.512-0.098 0.707-0.293l5.586-5.586c0.391-0.391 0.391-1.023 0-1.414l-0.297-0.297 3.001-3c1.003 1.004 2.467 4.539-2.997 10.004z"></path>
</symbol>
</defs>
</svg>
